<?xml version="1.0" encoding="utf-8"?>
<!-- Generator: Adobe Illustrator 25.2.3, SVG Export Plug-In . SVG Version: 6.00 Build 0)  -->
<svg version="1.1" xmlns="http://www.w3.org/2000/svg" xmlns:xlink="http://www.w3.org/1999/xlink" x="0px" y="0px"
	 viewBox="0 0 378.2 320" style="enable-background:new 0 0 378.2 320;" xml:space="preserve">
<style type="text/css">
	.st0{display:none;}
	.st1{display:inline;}
	.st2{fill:#FFFFFF;}
</style>
<g id="Слой_2" class="st0">
	<g>
		<path class="st1" d="M195.8,301c-28,0-56,0-83.9-0.1c-2.9,0-4.9,0.7-6.7,3.1c-3,4.2-6.4,8.1-9.7,12c-4.5,5.2-10.7,5.3-15,0
			c-17.7-21.6-35.3-43.4-52.8-65.1c-2.5-3.1-3.1-6.6-1.3-10.2c1.8-3.6,4.8-5.3,8.9-5.1c4.5,0.1,9-0.2,13.5,0.1
			c3.4,0.2,4.1-1.2,4.1-4.3c-0.1-19.2-0.1-38.3-0.1-57.5c0-9.2,1.5-11.2,10.7-12.9c3.1-0.6,1.8-2.7,1.8-4.2
			c0.1-22.5,0.1-45,0.1-67.4c0-6.3,0-12.7,0-19c0-3.5,1.1-6.4,3.7-8.9C88.4,42.3,107.7,23,126.9,3.7c2.5-2.5,5.3-3.7,8.9-3.7
			c48.1,0,96.3,0,144.4,0c7.1,0,10.7,3.8,10.7,11.4c0,23.8,0.1,47.6-0.1,71.4c0,3.8,0.7,5.2,4.8,5c9.8-0.3,19.7-0.2,29.5-0.1
			c11.5,0.1,20,8.2,20,19.7c0.1,27.6,0.1,55.3,0,82.9c-0.1,11.3-8.2,19.4-19.5,19.7c-10,0.2-20,0.3-30-0.1c-4.2-0.1-4.8,1.3-4.8,5.1
			c0.1,24.3,0.1,48.6,0.1,72.9c0,10-2.8,12.8-12.7,12.8C250.8,301,223.3,301,195.8,301z M123.5,281.6c0.8,1.1,1.7,0.9,2.5,0.9
			c47.5,0,95,0,142.4,0.1c3.2,0,3.8-1,3.8-4c-0.1-21.2-0.2-42.3,0-63.5c0-4-1.1-4.9-5-4.9c-35.5,0.1-71-0.2-106.4,0.3
			c-13.6,0.2-23.3-8.8-23-23.2c0.6-25.8,0.2-51.6,0.2-77.4c0-14.2,7.7-21.9,21.8-22c36,0,72-0.1,107.9,0.1c3.5,0,4.5-0.8,4.4-4.4
			c-0.2-20.2-0.1-40.3,0-60.5c0-3.1-0.6-4.2-4-4.2c-40.1,0.1-80.3,0.1-120.4,0c-3.5,0-4,1.2-4,4.2c0.1,14.3,0.1,28.6,0.1,43
			c0,9.2-3.1,12.2-12.4,12.2c-14.5,0-29,0.1-43.5,0c-2.6,0-3.8,0.4-3.8,3.5c0.1,25.3,0.1,50.6,0,76c0,3.1,1.2,3.5,3.8,3.4
			c7.5-0.1,15-0.1,22.5,0c9.2,0,12.6,3.4,12.6,12.6c0,19.3,0.1,38.6-0.1,58c0,3.2,0.7,4.5,4.1,4.2c4-0.3,8,0,12-0.1
			c4.5-0.2,8.3,0.7,10.4,5.2c2.1,4.6,0.4,8.3-2.5,11.9C139.1,262.3,131.3,272,123.5,281.6z M241.2,191.6c26.8,0,53.6-0.1,80.4,0.1
			c3.7,0,4.8-0.8,4.7-4.7c-0.2-25.3-0.2-50.6,0-75.9c0-3.3-0.6-4.6-4.2-4.5c-53.6,0.1-107.2,0.1-160.9,0c-3.9,0-4.6,1.3-4.6,4.8
			c0.1,25,0.2,50,0,74.9c0,4.6,1.5,5.4,5.7,5.4C188.6,191.5,214.9,191.6,241.2,191.6z M121.6,254.1c-2.3,0-3.2-0.1-4.1,0
			c-9.8,1.1-13.5-4.3-13.3-13.2c0.4-19,0.1-37.9,0.2-56.9c0-3.2-0.7-4.3-4-4.2c-8.1,0.3-16.3,0.3-24.4,0c-3.7-0.1-4.7,0.8-4.7,4.6
			c0.2,19.6,0.1,39.3,0.1,58.9c0,7.6-3.2,10.7-10.9,10.9c-1.7,0-3.6-0.7-5.4,0.9c10.9,13.5,21.8,26.8,32.9,40.6
			C99,282,109.9,268.6,121.6,254.1z M125.1,33.5c-8.9,8.7-17.6,17.2-26.6,26.2c8.3,0,16.3,0,24.4,0c2.2,0,2.3-1.3,2.3-3
			C125.1,48.9,125.1,41.2,125.1,33.5z"/>
		<path class="st1" d="M222.4,148.6c0-7.5,0-15,0-22.4c0-6.7,1.9-8.5,8.7-8.5c5.8,0,11.7-0.8,17.4,0.5c12.7,3,18.5,12.3,20.3,24.2
			c1.6,10.7-0.2,20.9-7.7,29.3c-4.6,5.3-10.5,7.9-17.5,8.1c-4.5,0.1-9,0.1-13.5,0.1c-5.4-0.1-7.6-2.1-7.7-7.5
			C222.3,164.6,222.4,156.6,222.4,148.6z M240.1,130.1c-1,1.5-5-2.4-5.1,2.4c-0.1,11,0,21.9,0,32.9c0,1.3,0.4,2,1.9,2.3
			c10,1.9,17.9-3.7,19.2-13.8c0.4-3.1,0.4-6.3,0.1-9.4C255.3,134.9,250.2,130.2,240.1,130.1z"/>
		<path class="st1" d="M172.4,148.5c0-7.6-0.1-15.3,0-22.9c0.1-5.8,2.1-7.9,7.8-7.8c6.3,0.2,12.6-1,18.8,1.1
			c9.5,3.2,15.1,11.8,14,21.5c-1,9.5-8.7,16.8-18.5,17.8c-9.6,0.9-9.6,0.9-9.6,10.8c0,1.3,0.1,2.7,0,4c-0.3,4.7-2.7,7.4-6.5,7.1
			c-4.3-0.3-6-3.1-6-7.1C172.4,164.7,172.4,156.6,172.4,148.5z M189.4,145.9c1.1,0,1.8,0,2.4,0c5.3-0.2,9-3.6,8.9-8.1
			c-0.1-5.1-4.2-7.6-11.7-7.8c-7-0.2-3.1,4.9-3.9,7.6c-0.3,1,0.1,2.3-0.1,3.5C184.5,145,185.7,146.8,189.4,145.9z"/>
		<path class="st1" d="M278.1,148.9c0-7.7,0-15.3,0-22.9c0-6.1,1.9-8.2,7.9-8.2c6-0.1,12,0,18,0c4.2,0,6.9,2.2,6.8,6.3
			c0,4-2.7,6.2-6.9,6.1c-3.2,0-6.3,0.2-9.5-0.1c-3.2-0.3-3.9,1-3.9,4c0,8.2-0.1,8.2,8.1,8.2c7.5,0,10.5,1.7,10.6,6.1
			c0.2,4.6-3,6.5-10.7,6.5c-7.9,0-7.9,0-7.9,7.8c0,3.7,0.1,7.3-0.1,11c-0.1,3.8-2,6.5-6,6.5c-4.2,0-6.4-2.5-6.4-6.7
			C278.1,165.2,278.1,157,278.1,148.9z"/>
	</g>
</g>
<g id="Слой_1">
	<path class="st2" d="M255.7,173.7H122.3c-6.3,0-11.4-5.1-11.4-11.4v-53.5c0-6.3,5.1-11.4,11.4-11.4h133.4c6.3,0,11.4,5.1,11.4,11.4
		v53.5C267,168.6,262,173.7,255.7,173.7z"/>
	<path class="st2" d="M174.2,257H40.8c-6.3,0-11.4-5.1-11.4-11.4v-53.5c0-6.3,5.1-11.4,11.4-11.4h133.4c6.3,0,11.4,5.1,11.4,11.4
		v53.5C185.6,251.9,180.5,257,174.2,257z"/>
	<path class="st2" d="M337.4,257H204c-6.3,0-11.4-5.1-11.4-11.4v-53.5c0-6.3,5.1-11.4,11.4-11.4h133.4c6.3,0,11.4,5.1,11.4,11.4
		v53.5C348.8,251.9,343.7,257,337.4,257z"/>
</g>
</svg>
