<?xml version="1.0" encoding="utf-8"?>
<!-- Generator: Adobe Illustrator 25.2.3, SVG Export Plug-In . SVG Version: 6.00 Build 0)  -->
<svg version="1.1" id="Слой_1" xmlns="http://www.w3.org/2000/svg" xmlns:xlink="http://www.w3.org/1999/xlink" x="0px" y="0px"
	 viewBox="0 0 770 770" style="enable-background:new 0 0 770 770;" xml:space="preserve">
<style type="text/css">
	.st0{fill:#EFEFEF;}
</style>
<g id="Слой_1_1_">
	<path class="st0" d="M499.7,342.5H271.3c-5.9,0-10.8-4.8-10.8-10.8v-43.5c0-5.9,4.8-10.8,10.8-10.8h228.5c5.9,0,10.8,4.8,10.8,10.8
		v43.5C510.5,337.7,505.7,342.5,499.7,342.5z"/>
	<path class="st0" d="M629.7,417.5H401.3c-5.9,0-10.8-4.8-10.8-10.8v-43.5c0-5.9,4.8-10.8,10.8-10.8h228.5c5.9,0,10.8,4.8,10.8,10.8
		v43.5C640.5,412.7,635.7,417.5,629.7,417.5z"/>
	<path class="st0" d="M499.2,492.5H270.8c-5.9,0-10.8-4.8-10.8-10.8v-43.5c0-5.9,4.8-10.8,10.8-10.8h228.5c5.9,0,10.8,4.8,10.8,10.8
		v43.5C510,487.7,505.2,492.5,499.2,492.5z"/>
	<path class="st0" d="M759.2,492.5H530.8c-5.9,0-10.8-4.8-10.8-10.8v-43.5c0-5.9,4.8-10.8,10.8-10.8h228.5c5.9,0,10.8,4.8,10.8,10.8
		v43.5C770,487.7,765.2,492.5,759.2,492.5z"/>
	<path class="st0" d="M369.7,417.5H141.3c-5.9,0-10.8-4.8-10.8-10.8v-43.5c0-5.9,4.8-10.8,10.8-10.8h228.5c5.9,0,10.8,4.8,10.8,10.8
		v43.5C380.5,412.7,375.7,417.5,369.7,417.5z"/>
	<path class="st0" d="M239.2,492.5H10.8c-5.9,0-10.8-4.8-10.8-10.8v-43.5c0-5.9,4.8-10.8,10.8-10.8h228.5c5.9,0,10.8,4.8,10.8,10.8
		v43.5C250,487.7,245.2,492.5,239.2,492.5z"/>
</g>
</svg>
