<?xml version="1.0" encoding="utf-8"?>
<!-- Generator: Adobe Illustrator 25.2.3, SVG Export Plug-In . SVG Version: 6.00 Build 0)  -->
<svg version="1.1" id="Layer_1" xmlns="http://www.w3.org/2000/svg" xmlns:xlink="http://www.w3.org/1999/xlink" x="0px" y="0px"
	 viewBox="0 0 20 20" style="enable-background:new 0 0 20 20;" xml:space="preserve">
<style type="text/css">
	.st0{fill-rule:evenodd;clip-rule:evenodd;fill:#FFFFFF;}
</style>
<path class="st0" d="M3.2,12.3C4.7,13.4,6.9,13,8,11.6l4.8-6.4c1.1-1.5,0.8-3.5-0.8-4.6S8.3-0.1,7.2,1.4L2.4,7.7
	C1.3,9.2,1.6,11.2,3.2,12.3z M16.6,13.4H3.4c-1.9,0-3.4,1.5-3.4,3.3C0,18.5,1.5,20,3.4,20h13.2c1.9,0,3.4-1.5,3.4-3.3
	S18.5,13.4,16.6,13.4z M18.1,9.9c0,1.7-1.4,3.1-3.2,3.1s-3.2-1.4-3.2-3.1s1.4-3.1,3.2-3.1S18.1,8.3,18.1,9.9z"/>
</svg>
