<svg id="Слой_1" data-name="Слой 1" xmlns="http://www.w3.org/2000/svg" xmlns:xlink="http://www.w3.org/1999/xlink" viewBox="0 0 17 17"><defs><style>.cls-1{fill:none;}.cls-2{clip-path:url(#clip-path);}.cls-3{fill:#fff;}</style><clipPath id="clip-path"><rect class="cls-1" width="17" height="17"/></clipPath></defs><title>chimney 1 active</title><g class="cls-2"><path class="cls-3" d="M12.92,7.43H11.1a2.35,2.35,0,0,0,.07-.6A2.65,2.65,0,0,0,10.42,5a3.42,3.42,0,0,0,.25-1,2,2,0,0,0,.94-.55A2.05,2.05,0,0,0,10.14,0a2.07,2.07,0,0,0-1.4.55A3.33,3.33,0,0,0,7.27.22,3.42,3.42,0,0,0,4.53,5.68,3.48,3.48,0,0,0,5.86,6.76v.07a2.35,2.35,0,0,0,.07.6H4.08a1.5,1.5,0,0,0-1.49,1.5V9.7a1.51,1.51,0,0,0,1,1.41V17h9.82V11.11a1.51,1.51,0,0,0,1-1.41V8.93A1.5,1.5,0,0,0,12.92,7.43Zm-6.06-.6a1.71,1.71,0,0,1,0-.31L7,6.09,6.55,6a2.39,2.39,0,0,1-1.7-2.31A2.42,2.42,0,0,1,7.27,1.22a2.47,2.47,0,0,1,1.32.38L9,1.87l.27-.41a1.05,1.05,0,1,1,.91,1.64l-.49,0v.51h0a2.44,2.44,0,0,1-.33,1.21l-.22.39.35.26a1.63,1.63,0,0,1,.67,1.33,1.68,1.68,0,0,1-.11.6H7A1.68,1.68,0,0,1,6.86,6.83Zm5.56,6.28h-5V11.19h5Zm-6,0H4.58V11.19H6.44Zm-1.86,1h5V16h-5Zm6,1.9V14.1h1.86V16Zm2.85-6.3a.5.5,0,0,1-.49.5H4.08a.5.5,0,0,1-.49-.5V8.93a.49.49,0,0,1,.49-.5h8.84a.49.49,0,0,1,.49.5Z"/><path class="cls-3" d="M7.19,2.08a1.53,1.53,0,0,0-1.07.54,1.57,1.57,0,0,0,.17,2.21l.65-.76a.57.57,0,0,1-.07-.8.55.55,0,0,1,.39-.2.6.6,0,0,1,.42.14l.65-.76A1.59,1.59,0,0,0,7.19,2.08Z"/></g></svg>
