<svg id="Слой_1" data-name="Слой 1" xmlns="http://www.w3.org/2000/svg" xmlns:xlink="http://www.w3.org/1999/xlink" viewBox="0 0 18 18"><defs><style>.cls-1{fill:none;}.cls-2{clip-path:url(#clip-path);}.cls-3{fill:#ffff;}</style><clipPath id="clip-path"><rect class="cls-1" width="18" height="18"/></clipPath></defs><title>fence 1 active</title><g class="cls-2"><path class="cls-3" d="M15.36,5.27a.53.53,0,1,0,0-1,.53.53,0,0,0,0,1Z"/><path class="cls-3" d="M15.36,14.84a.53.53,0,1,0,0-1.06.53.53,0,0,0,0,1.06Z"/><path class="cls-3" d="M17.85,2.26,15.74.15a.54.54,0,0,0-.75,0L12.88,2.26a.54.54,0,0,0-.15.38v.52H11.67V2.64a.51.51,0,0,0-.16-.38L9.37.15a.53.53,0,0,0-.74,0L6.49,2.26a.51.51,0,0,0-.16.38v.52H5.27V2.64a.54.54,0,0,0-.15-.38L3,.15a.54.54,0,0,0-.75,0L.15,2.26A.58.58,0,0,0,0,2.64V17.47A.53.53,0,0,0,.53,18H4.75a.52.52,0,0,0,.52-.53V15.89H6.33v1.58a.53.53,0,0,0,.53.53h4.28a.53.53,0,0,0,.53-.53V15.89h1.06v1.58a.52.52,0,0,0,.52.53h4.22a.53.53,0,0,0,.53-.53V2.64A.58.58,0,0,0,17.85,2.26ZM4.22,17H1.05V2.86L2.64,1.27,4.22,2.86Zm2.11-2.11H5.27V12.73H6.33Zm0-3.17H5.27V7.38H6.33Zm0-5.34H5.27V4.22H6.33ZM10.62,17H7.38V2.86L9,1.27l1.62,1.59Zm2.11-2.11H11.67V12.73h1.06Zm0-3.17H11.67V7.38h1.06Zm0-5.34H11.67V4.22h1.06ZM17,17H13.78V2.86l1.58-1.59L17,2.86Z"/><path class="cls-3" d="M9,5.27a.53.53,0,1,0-.53-.52A.52.52,0,0,0,9,5.27Z"/><path class="cls-3" d="M9,14.84a.53.53,0,1,0-.53-.53A.53.53,0,0,0,9,14.84Z"/><path class="cls-3" d="M2.64,5.27a.53.53,0,0,0,0-1,.53.53,0,1,0,0,1Z"/><path class="cls-3" d="M2.64,14.84a.53.53,0,0,0,0-1.06.53.53,0,1,0,0,1.06Z"/></g></svg>
