<?xml version="1.0" encoding="utf-8"?>
<!-- Generator: Adobe Illustrator 21.1.0, SVG Export Plug-In . SVG Version: 6.00 Build 0)  -->
<svg version="1.1" id="Слой_1" xmlns="http://www.w3.org/2000/svg" xmlns:xlink="http://www.w3.org/1999/xlink" x="0px" y="0px"
	 viewBox="0 0 41 35" style="enable-background:new 0 0 41 35;" xml:space="preserve">
<g>
	<path fill="#fff" d="M36.8,1h-2.7c-0.7,0-1.2,0.5-1.2,1.2v1c0,0.7-0.5,1.2-1.2,1.2H9.3C8.6,4.5,8.1,4,8.1,3.2v-1C8.1,1.5,7.6,1,6.8,1H4.1
		c-2.2,0-4,1.7-4,4v25.2c0,2.2,1.7,4,4,4h32.7c2.2,0,4-1.7,4-4V5C40.8,2.7,39.1,1,36.8,1z M2.5,5c0-0.9,0.7-1.6,1.6-1.6h0.4
		c0.7,0,1.2,0.5,1.2,1.2v20.3c0,0.7-0.5,1.2-1.2,1.2H4.1c-0.7,0-1.6-0.5-1.6-1.2C2.5,24.9,2.5,5,2.5,5z M36.8,31.8H4.1
		c-0.9,0-1.6-0.7-1.6-1.6c0-0.9,0.7-1.6,1.6-1.6h2.7c0.7,0,1.2-0.5,1.2-1.2V8.2C8.1,7.5,8.6,7,9.3,7h22.3c0.7,0,1.2,0.5,1.2,1.2
		v19.2c0,0.7,0.5,1.2,1.2,1.2h2.7c0.9,0,1.6,0.7,1.6,1.6C38.5,31,37.7,31.8,36.8,31.8z M38.5,24.9c0,0.7-0.9,1.2-1.6,1.2h-0.4
		c-0.7,0-1.2-0.5-1.2-1.2V4.6c0-0.7,0.5-1.2,1.2-1.2h0.4c0.9,0,1.6,0.7,1.6,1.6V24.9z"/>
	<path fill="#fff" d="M20.7,11.9c-0.1-0.1-0.5-0.1-0.6,0L11.4,19c-0.2,0.1-0.2,0.5-0.1,0.7l0.9,1.1c0.1,0.2,0.5,0.2,0.7,0.1l0.4-0.4
		c0.4-0.2,0.9,0,0.9,0.4v5.1c0,0.2,0.2,0.5,0.5,0.5h11.7c0.2,0,0.5-0.2,0.5-0.5V21c0-0.4,0.5-0.6,0.9-0.4L28,21
		c0.2,0.1,0.5,0.1,0.7-0.1l0.9-1.1c0.1-0.2,0.1-0.5-0.1-0.7L20.7,11.9z M24.4,23.7c0,0.2-0.2,0.5-0.5,0.5l0,0
		c-0.2,0-0.5-0.2-0.5-0.5v-2.9c0-0.2-0.2-0.5-0.5-0.5h-4.8c-0.2,0-0.5,0.2-0.5,0.5v2.9c0,0.2-0.2,0.5-0.5,0.5l0,0
		c-0.2,0-0.5-0.2-0.5-0.5v-5.5c0-0.1,0.1-0.2,0.1-0.4l3.5-2.9c0.1-0.1,0.5-0.1,0.6,0l3.5,2.9c0.1,0.1,0.1,0.2,0.1,0.4
		C24.4,18.2,24.4,23.7,24.4,23.7z"/>
</g>
</svg>
