<?xml version="1.0" encoding="utf-8"?>
<!-- Generator: Adobe Illustrator 21.1.0, SVG Export Plug-In . SVG Version: 6.00 Build 0)  -->
<svg version="1.1" id="Слой_1" xmlns="http://www.w3.org/2000/svg" xmlns:xlink="http://www.w3.org/1999/xlink" x="0px" y="0px"
	 viewBox="0 0 17 17" style="enable-background:new 0 0 17 17;" xml:space="preserve">
<title>home-2 1 active</title>
<g>
	<path fill="#5221d1" d="M16.8,7.3l-7.7-7L9,0.2L8.8,0.1l0,0C8.6,0,8.4,0,8.2,0.1l0,0L8,0.2v0.1l-7.7,7C0,7.5,0,8,0.3,8.3c0.3,0.3,0.7,0.3,1,0
		l0.2-0.2v8.2c0,0.4,0.3,0.7,0.7,0.7h12.6c0.4,0,0.7-0.3,0.7-0.7c0,0,0,0,0,0V8.1l0.2,0.2c0.3,0.2,0.8,0.2,1-0.1
		C17,7.9,17,7.5,16.8,7.3z M7.1,15.6v-4.3c0-0.8,0.6-1.4,1.4-1.4s1.4,0.6,1.4,1.4v4.3H7.1z M14.2,15.6h-2.8v-4.3
		c0-1.6-1.3-2.8-2.8-2.8s-2.8,1.3-2.8,2.8c0,0,0,0,0,0v4.3H2.8V6.8l5.7-5.2l5.7,5.2V15.6z"/>
</g>
</svg>
