<svg id="Слой_1" data-name="Слой 1" xmlns="http://www.w3.org/2000/svg" viewBox="0 0 19 19"><defs><style>.cls-1{fill:#ffffff;}</style></defs><title>house 1 active</title><path class="cls-1" d="M15.07,8.94H10a.56.56,0,0,0-.56.56v5.07a.56.56,0,0,0,.56.56h5.07a.56.56,0,0,0,.55-.56V9.5A.56.56,0,0,0,15.07,8.94ZM14.51,14h-4V10.06h4Z"/><path class="cls-1" d="M18.11,10.29A.56.56,0,0,0,19,9.84V7.27a.56.56,0,0,0-.22-.45L16.92,5.43V1.11a.56.56,0,0,0,.56-.55A.56.56,0,0,0,16.92,0H13.58A.56.56,0,0,0,13,.56a.56.56,0,0,0,.56.55V2.92L9.83.11a.54.54,0,0,0-.66,0L.22,6.82A.56.56,0,0,0,0,7.27V9.84a.56.56,0,0,0,.89.45l.63-.48V16h-1a.56.56,0,0,0-.56.56v1.89A.56.56,0,0,0,.56,19H18.44a.56.56,0,0,0,.56-.56V16.55a.56.56,0,0,0-.56-.56h-1V9.81ZM14.69,1.11h1.12V4.59l-1.12-.83Zm3.2,16v.78H1.11v-.78ZM7.64,8.94H3.93a.56.56,0,0,0-.55.56V16H2.63V9L9.5,3.83,16.37,9v7H8.2V9.5A.56.56,0,0,0,7.64,8.94Zm-.55,1.12V16H4.49V10.06ZM9.83,2.69a.54.54,0,0,0-.66,0c-.59.43-7.7,5.77-8.06,6V7.54L9.5,1.25l8.39,6.29V8.73C17.52,8.46,10.42,3.12,9.83,2.69Z"/></svg>
