<?xml version="1.0" encoding="utf-8"?>
<!-- Generator: Adobe Illustrator 21.1.0, SVG Export Plug-In . SVG Version: 6.00 Build 0)  -->
<svg version="1.1" id="Слой_1" xmlns="http://www.w3.org/2000/svg" xmlns:xlink="http://www.w3.org/1999/xlink" x="0px" y="0px"
	 viewBox="0 0 31 31" style="enable-background:new 0 0 31 31;" xml:space="preserve">
<style type="text/css">
	.st0{fill:#FFF;}
</style>
<g>
	<g>
		<path class="st0" d="M0.5,26.3C1.3,24.8,2,23.4,2.8,22c1.6-3,3.2-5.9,4.9-8.9c0.4-0.7,0.7-1.3,1.1-1.9c0.6-1,1.6-1.4,2.9-1.3
			c0.4-0.7,0.6-1.4,1.1-2C14.9,4.7,18,3.1,22,3.6c4.3,0.5,7.6,3.7,8.4,8c0.1,0.3,0.1,0.6,0.1,0.9c0,0.5,0,1.1,0,1.6
			c0,0.1,0,0.1,0,0.2c-0.2,1.8-0.8,3.4-1.9,4.8c-0.5,0.6-1.1,1.2-1.7,1.8c0,0.1,0.1,0.2,0.2,0.3c1,1.6,2,3.2,3,4.8
			c0.2,0.3,0.2,0.5,0.2,0.8c-0.1,0.5-0.5,0.7-1.1,0.7c-9.1,0-18.2,0-27.3,0c-0.6,0-1.1-0.2-1.3-0.8C0.5,26.6,0.5,26.4,0.5,26.3z
			 M25.7,19.1C25.8,19.1,25.8,19.1,25.7,19.1c0.1,0,0.1-0.1,0.1-0.1c2-1.9,2.9-4.2,2.5-7c-0.5-3.6-3.4-6.2-7-6.5s-7,2-8,5.4
			c-0.1,0.2,0,0.4,0.1,0.6c0.8,1.3,1.6,2.5,2.4,3.8c0.5,0.8,1.1,1.7,1.6,2.5c0.1-0.1,0.1-0.2,0.1-0.3c0.4-0.7,0.8-1.4,1.2-2.2
			c1-1.8,3.4-1.9,4.5-0.2c0.4,0.6,0.8,1.2,1.1,1.8C24.9,17.8,25.3,18.4,25.7,19.1z M3.2,25.5C3.2,25.5,3.3,25.5,3.2,25.5
			c3.4,0,6.7,0,10,0c0.1,0,0.2-0.1,0.3-0.2c1-1.7,1.9-3.5,2.9-5.3c0-0.1,0.1-0.2,0-0.2c-0.3-0.5-0.6-1-1-1.5
			c-0.2,0.3-0.5,0.5-0.7,0.7c-0.5,0.5-1.1,0.5-1.6,0c-0.3-0.3-0.5-0.6-0.8-0.8c-0.8,0.8-1.6,1.6-2.4,2.4c-0.6,0.6-1.1,0.6-1.7,0
			c-0.5-0.5-1-0.9-1.6-1.4C5.5,21.3,4.3,23.4,3.2,25.5z M21.9,22.9c-0.9,0.4-1.7,0.8-2.5,1.3c-0.6,0.3-0.9,0.2-1.4-0.2
			c-0.3-0.3-0.6-0.6-1-1c-0.5,0.9-0.9,1.7-1.4,2.6c3.9,0,7.8,0,11.8,0c-0.6-0.9-1.2-1.8-1.7-2.7c-0.4,0.4-0.8,0.8-1.2,1.2
			c-0.5,0.5-1,0.5-1.5,0C22.7,23.6,22.3,23.2,21.9,22.9z M24.6,21c-1-1.6-2-3.1-3-4.7c-0.2-0.4-0.8-0.3-1,0.1
			c-0.8,1.5-1.7,3-2.5,4.5c0,0.1,0,0.2,0,0.3c0.2,0.2,0.5,0.5,0.7,0.7C18.9,22,19,22,19.2,22c0.7-0.4,1.4-0.7,2.2-1.1
			c0.7-0.4,1-0.3,1.6,0.3c0.2,0.2,0.5,0.5,0.7,0.8C24,21.6,24.3,21.3,24.6,21z M14.3,16.6c-0.9-1.5-1.9-2.9-2.8-4.4
			c-0.3-0.5-0.8-0.5-1.1,0.1s-0.7,1.2-1,1.8c-0.6,1.1-1.2,2.2-1.8,3.4c0.5,0.4,0.9,0.8,1.4,1.3c0.1-0.1,0.2-0.1,0.2-0.2
			c0.8-0.8,1.5-1.5,2.3-2.3c0.5-0.5,1.1-0.6,1.6,0c0.3,0.3,0.5,0.5,0.8,0.8C14.1,16.8,14.2,16.7,14.3,16.6z"/>
	</g>
</g>
</svg>
