<?xml version="1.0" encoding="utf-8"?>
<!-- Generator: Adobe Illustrator 21.1.0, SVG Export Plug-In . SVG Version: 6.00 Build 0)  -->
<svg version="1.1" id="Слой_1" xmlns="http://www.w3.org/2000/svg" xmlns:xlink="http://www.w3.org/1999/xlink" x="0px" y="0px"
	 viewBox="0 0 29 26" style="enable-background:new 0 0 29 26;" xml:space="preserve">
<path fill="#ffffff" d="M28.1,0H0.9C0.4,0,0,0.4,0,1c0,0.6,0,19.2,0,19.7C0,23.6,2.3,26,5.2,26c1.7,0,3.5-0.9,4.6-2.5c1,1.5,2.7,2.5,4.7,2.5
	c2,0,3.6-1,4.7-2.5c1,1.5,2.7,2.5,4.6,2.5c2.9,0,5.2-2.4,5.2-5.3c0-1.1,0-18.5,0-19.7C29,0.4,28.6,0,28.1,0z M22.4,1.9v1.4
	c0,1.7-1.4,3.2-3.1,3.3c0,0,0,0,0,0c-2,0.2-3.8-1.4-3.8-3.3c0,0,0,0.1,0-1.4L22.4,1.9L22.4,1.9z M14.5,6.4c0.9,1.3,2.3,2.1,3.9,2.3
	v0c0,2-1.6,3.9-3.9,3.9c-2.3,0-3.8-1.8-3.8-3.9v0C12.3,8.5,13.6,7.6,14.5,6.4z M6.6,1.9L6.6,1.9h6.9l0,1.5c0,1.8-1.6,3.3-3.4,3.3
	c-1.9,0-3.5-1.5-3.5-3.4V1.9z M1.9,1.9h2.8v1.4c0,1.7-1.2,3.1-2.8,3.3V1.9z M1.9,8.6c1.5-0.1,3-1,3.8-2.3c0.8,1.1,1.8,1.8,3,2.1v0.7
	c0,1.8-1.6,3.4-3.5,3.4c-1.8,0-3.3-1.5-3.3-3.4L1.9,8.6L1.9,8.6z M1.9,13.2c0.6,0.5,1.2,0.8,1.9,1v0.7c0,1.3-0.8,2.5-1.9,3.1V13.2z
	 M8.8,20.7c0,1.8-1.7,3.4-3.6,3.4c-1.8,0-3.3-1.5-3.3-3.4V20c1.3-0.4,2.3-1.2,3-2.3c0.2,0.3,0.4,0.6,0.7,0.8c0.9,0.9,2,1.4,3.2,1.6
	C8.8,20.3,8.8,20.7,8.8,20.7z M9.7,18.3c-2.2,0-3.6-1.4-3.9-3.9c1.2-0.1,2.3-0.7,3.2-1.5c0.3-0.3,0.6-0.6,0.8-0.9
	c0.9,1.3,2.2,2.2,3.8,2.4C13.4,17,11.5,18.3,9.7,18.3z M14.5,24.1c-2.2,0-3.8-1.7-3.8-4c1.6-0.3,2.9-1.2,3.8-2.5
	c0.9,1.3,2.2,2.2,3.8,2.5C18.3,22.5,16.6,24.1,14.5,24.1z M19.3,18.3c-2,0-3.7-1.6-3.9-3.5c0,0,0-0.4,0-0.4c1.6-0.2,2.9-1.1,3.8-2.4
	c0.2,0.3,0.5,0.6,0.8,0.9c0.9,0.8,2,1.4,3.2,1.5C23,16.9,21.5,18.3,19.3,18.3z M27.1,20.7c0,1.9-1.5,3.4-3.3,3.4
	c-1.9,0-3.6-1.6-3.6-3.4c0,0,0-0.4,0-0.5c1.3-0.2,2.4-0.7,3.2-1.6c0.2-0.3,0.5-0.5,0.7-0.8c0.7,1.1,1.7,1.9,3,2.3V20.7z M27.1,18
	c-1.1-0.5-1.9-1.7-1.9-3.1v-0.7c0.7-0.2,1.3-0.6,1.9-1V18z M27.1,9.1c0,1.9-1.5,3.4-3.3,3.4c-1.9,0-3.5-1.5-3.5-3.4V8.5
	c1.2-0.3,2.2-1,3-2.1c0.9,1.3,2.3,2.1,3.8,2.3V9.1z M27.1,6.7c-1.6-0.2-2.8-1.7-2.8-3.3V1.9h2.8V6.7z"/>
</svg>
