<?xml version="1.0" encoding="utf-8"?>
<!-- Generator: Adobe Illustrator 21.1.0, SVG Export Plug-In . SVG Version: 6.00 Build 0)  -->
<svg version="1.1" id="Слой_1" xmlns="http://www.w3.org/2000/svg" xmlns:xlink="http://www.w3.org/1999/xlink" x="0px" y="0px"
	 viewBox="0 0 33 40" style="enable-background:new 0 0 33 40;" xml:space="preserve">
<path fill="#fff" d="M25.2,24.9c3,0,5.5-2.5,5.5-5.5c0-1.3-0.4-2.5-1.2-3.5c-0.5-0.7-1.2-1.2-2-1.6c0.2-0.7,0.3-1.4,0.3-2.1
	c0-1.8-0.6-3.5-1.8-4.8c-1-1.1-2.2-1.9-3.7-2.3c-0.2-1.3-0.8-2.4-1.7-3.3C19.5,0.6,18.1,0,16.5,0c-1.6,0-3,0.6-4.2,1.7
	c-0.9,0.9-1.5,2.1-1.7,3.3C9.2,5.4,8,6.2,7,7.4c-1.1,1.3-1.8,3-1.8,4.8c0,0.7,0.1,1.5,0.3,2.1c-0.8,0.4-1.5,0.9-2,1.6
	c-0.8,1-1.2,2.2-1.2,3.5c0,3,2.5,5.5,5.5,5.5h7.7v6.2h-8V33h17.9v-1.9h-8v-6.2L25.2,24.9L25.2,24.9z M7.8,22.9c-2,0-3.6-1.6-3.6-3.6
	c0-1.7,1.1-3.1,2.8-3.5l1.2-0.3l-0.5-1.1c-0.3-0.7-0.5-1.5-0.5-2.3c0-1.3,0.5-2.6,1.3-3.5c0.8-1,2-1.6,3.3-1.8l0.8-0.1l0-0.8
	c0-2.2,1.8-3.9,4-3.9s3.9,1.8,4,3.9l0,0.8l0.8,0.1c1.3,0.2,2.4,0.9,3.3,1.8c0.8,1,1.3,2.2,1.3,3.5c0,0.8-0.2,1.6-0.5,2.3l-0.5,1.1
	l1.2,0.3c1.6,0.4,2.8,1.8,2.8,3.5c0,2-1.6,3.6-3.6,3.6h-7.7v-5.4L21,14l-1.4-1.4l-2.2,2.2V8.4h-1.9v2.9l-2.2-2.2L12,10.5l3.5,3.5
	v4.2l-2.2-2.2L12,17.5l3.5,3.5v1.9L7.8,22.9L7.8,22.9z"/>
<rect fill="#fff" y="31" width="33" height="2"/>
<rect fill="#fff" y="38" width="33" height="2"/>
</svg>
