<?xml version="1.0" encoding="utf-8"?>
<!-- Generator: Adobe Illustrator 21.1.0, SVG Export Plug-In . SVG Version: 6.00 Build 0)  -->
<svg version="1.1" id="Слой_1" xmlns="http://www.w3.org/2000/svg" xmlns:xlink="http://www.w3.org/1999/xlink" x="0px" y="0px"
	 viewBox="0 0 17 17" style="enable-background:new 0 0 17 17;" xml:space="preserve">
<style type="text/css">
	.st0{fill:#fff;}
</style>
<g>
	<path class="st0" d="M16.2,8.5c-0.3,0-7.9,0-8.3,0V5.4C8,5.2,7.7,5,7.5,5H2.3C2.1,5,1.9,5.2,1.9,5.4v3.1H0.8C0.5,8.5,0.3,8.8,0.3,9
		v3.6c0,0.3,0.2,0.5,0.5,0.5h2.1v2.6H0.8c-0.3,0-0.5,0.2-0.5,0.5c0,0.3,0.2,0.5,0.5,0.5h15.5c0.3,0,0.5-0.2,0.5-0.5
		c0-0.3-0.2-0.5-0.5-0.5h-2.1v-2.6h2.1c0.3,0,0.5-0.2,0.5-0.5V9C16.7,8.8,16.5,8.5,16.2,8.5z M10.6,12.1c-0.5,0-3.7,0-4.2,0V9.5h4.2
		V12.1z M2.8,5.9H7v2.6c-0.9,0-3.1,0-4.2,0V5.9z M1.3,12.1V9.5h4.2v2.6C4.9,12.1,1.8,12.1,1.3,12.1z M3.9,13.1H8v2.6H3.9V13.1z
		 M13.1,15.7H9v-2.6h4.2V15.7z M11.5,12.1V9.5h4.2v2.6C15.2,12.1,12.1,12.1,11.5,12.1z"/>
	<path class="st0" d="M10.9,7.5c0.3,0,0.5-0.1,0.8-0.2l1.7-1.1c0.3-0.2,0.3-0.5,0.1-0.7l-0.6-0.6l0.7-0.7c0.6,0.3,1.3,0.2,1.7-0.3
		c0.9-0.9,0.9-0.9,0.9-0.9c0.6-0.6,0.6-1.5,0-2.1c-0.6-0.6-1.5-0.6-2.1,0l-0.9,0.9c-0.5,0.5-0.6,1.2-0.3,1.7l-0.7,0.7l-0.6-0.6
		c-0.2-0.2-0.6-0.2-0.7,0.1L9.8,5.3C9.2,6.2,9.8,7.5,10.9,7.5z M13.9,2.3l0.9-0.9c0.1-0.1,0.2-0.2,0.4-0.2c0.5,0,0.7,0.6,0.4,0.9
		c0,0,0,0-0.9,0.9c-0.2,0.2-0.6,0.2-0.8,0C13.7,2.9,13.7,2.6,13.9,2.3z M10.6,5.9l0.8-1.2l1,1l-1.2,0.8c-0.2,0.1-0.4,0.1-0.5-0.1
		C10.5,6.2,10.5,6,10.6,5.9z"/>
</g>
</svg>
