<svg id="Слой_1" data-name="Слой 1" xmlns="http://www.w3.org/2000/svg" xmlns:xlink="http://www.w3.org/1999/xlink" viewBox="0 0 17 17"><defs><style>.cls-1{fill:none;}.cls-2{clip-path:url(#clip-path);}.cls-3{fill:#ffffff;}</style><clipPath id="clip-path"><rect class="cls-1" width="17" height="17"/></clipPath></defs><title>water 1 active</title><g class="cls-2"><path class="cls-3" d="M10.07,1.87C9.68,1.3,9.33.77,9,.28A.65.65,0,0,0,8.82.1.59.59,0,0,0,8,.28c-.3.49-.64,1-1.06,1.59-1.82,2.68-4.55,6.72-4.55,9a6.08,6.08,0,0,0,1.8,4.32A6.15,6.15,0,0,0,8.5,17a6.15,6.15,0,0,0,6.12-6.12C14.62,8.57,11.9,4.55,10.07,1.87ZM12,14.37A4.9,4.9,0,0,1,8.5,15.8,5,5,0,0,1,5,14.37a4.9,4.9,0,0,1-1.43-3.49c0-1.94,2.61-5.8,4.34-8.36.21-.3.4-.6.58-.85.19.25.37.55.58.85,1.73,2.59,4.34,6.42,4.34,8.36A5,5,0,0,1,12,14.37Z"/><path class="cls-3" d="M12.08,10.46a.6.6,0,0,0-.62.56A3.11,3.11,0,0,1,11,12.43a2.93,2.93,0,0,1-1.06,1,.61.61,0,0,0-.24.81.62.62,0,0,0,.84.26A4,4,0,0,0,12,13.07a3.87,3.87,0,0,0,.6-2A.59.59,0,0,0,12.08,10.46Z"/></g></svg>
