<?xml version="1.0" encoding="utf-8"?>
<!-- Generator: Adobe Illustrator 21.1.0, SVG Export Plug-In . SVG Version: 6.00 Build 0)  -->
<svg version="1.1" id="Слой_1" xmlns="http://www.w3.org/2000/svg" xmlns:xlink="http://www.w3.org/1999/xlink" x="0px" y="0px"
	 viewBox="0 0 30 31" style="enable-background:new 0 0 30 31;" xml:space="preserve">
<style type="text/css">
	.st0{fill:#FFFFFF;}
</style>
<g>
	<g>
		<path class="st0" d="M25.1,9.9c-0.2-5-4.8-9.2-9.9-9.3c-5.3,0-10,4.1-10.2,9.3c-0.2,6.3-0.1,12.6-0.1,19c0,0.2,0,0.4,0.1,0.5
			C5,29.5,5,29.7,5.1,29.8c0,0,0,0,0.1,0.1c0.3,0.3,0.7,0.4,1.1,0.5h17.8c0.3-0.1,0.6-0.2,0.8-0.4c0.2-0.2,0.2-0.4,0.3-0.7
			c0-0.1,0-0.2,0-0.3C25.2,22.6,25.3,16.3,25.1,9.9z M14,19.2H6.7c0-2.2,0-4.3,0-6.4c0-0.2,0.5-0.7,0.7-0.7c1.9-0.1,3.9-0.1,5.8,0
			c0.2,0,0.7,0.4,0.7,0.6C14,14.9,14,17,14,19.2z M13.9,2.7v5.5c-1.3-1.2-2.7-2.4-4.1-3.8C11.1,3.4,12.3,2.8,13.9,2.7z M8.2,5.9
			c1.5,1.5,2.9,2.8,4.3,4.2h-6C7.2,8.6,7.7,7.3,8.2,5.9z M14,27.8c0,0.2-0.5,0.6-0.8,0.6c-1.9,0.1-3.8,0-5.7,0
			c-0.5,0-0.8-0.2-0.8-0.8c0-2.1,0-4.1,0-6.3H14C14,23.6,14,25.7,14,27.8z M16.1,2.7c1.6,0.1,2.8,0.8,4.1,1.7
			c-1.5,1.3-3,2.5-4.1,3.4V2.7z M23.3,25.8c0,2.7,0,2.7-2.8,2.7c-1.2,0-2.4,0-3.6,0c-0.3,0-0.9-0.4-0.9-0.6c-0.1-2.1,0-4.3,0-6.5
			h7.3V25.8z M23.3,19.2H16c0-2.2,0-4.3,0-6.5c0-0.2,0.5-0.6,0.8-0.6c1.9-0.1,3.8,0,5.7,0c0.5,0,0.8,0.2,0.8,0.8
			C23.3,15,23.3,17,23.3,19.2z M17.4,10.1c1.5-1.3,2.9-2.6,4.5-4.1c0.5,1.2,1,2.6,1.6,4.1H17.4z"/>
	</g>
</g>
</svg>
